g LockerMesh
v -0.1402354 0.7484134 0.135
v -0.1774119 0.7484134 0.126149
v -0.1774119 0.7484134 0.135
v -0.1402354 0.7484134 0.135
v -0.1774119 0.3589914 0.126149
v -0.1402354 0.3589914 0.135
v -0.1774119 0.3589914 0.126149
v -0.1774119 0.3589914 0.135
v 0.25 0.01000031 0.135
v -0.25 0.01000031 0.135
v 0.25 1.199967 0.135
v -0.1774119 0.3589914 0.135
v -0.1774119 0.7484134 0.135
v -0.25 1.199967 0.135
v -0.1774119 0.7484134 0.135
v -0.1774119 0.7484134 0.126149
v -0.1774119 0.3589914 0.126149
v -0.1774119 0.7484134 0.135
v -0.1774119 0.3589914 0.126149
v -0.1774119 0.3589914 0.135
v 0.25 0.01000031 0.125
v 0.25 1.199967 0.125
v -0.25 1.199967 0.125
v -0.25 0.01000031 0.125
v 0.25 1.199967 0.125
v 0.25 1.199967 0.135
v -0.25 1.199967 0.135
v -0.25 1.199967 0.125
v 0.25 0.01000031 0.135
v 0.25 0.01000031 0.125
v -0.25 0.01000031 0.125
v -0.25 0.01000031 0.135
v -0.25 0.01000031 0.125
v -0.25 1.199967 0.125
v -0.25 1.199967 0.135
v -0.25 0.01000031 0.135
v 0.25 0.01000031 0.135
v 0.25 1.199967 0.135
v 0.25 1.199967 0.125
v 0.25 0.01000031 0.125
v 0.27 1.51 -0.135
v 0.27 1.51 0.125
v -0.2700001 1.51 0.125
v -0.2700001 1.51 -0.135
v 0.27 1.51 0.125
v 0.25 1.499801 0.125
v -0.25 1.499801 0.125
v -0.2700001 1.51 0.125
v 0.25 1.499801 0.125
v 0.2499986 1.499801 -0.125
v -0.2506545 1.499801 -0.125
v -0.25 1.499801 0.125
v -0.27 0 -0.135
v -0.2700001 1.51 -0.135
v -0.2700001 1.51 0.125
v -0.27 0 0.125
v -0.2700001 1.51 -0.135
v -0.27 0 -0.135
v 0.27 0 -0.135
v 0.27 1.51 -0.135
v 0.27 0 0.125
v 0.27 1.51 0.125
v 0.27 1.51 -0.135
v 0.27 0 -0.135
v 0.27 1.51 0.125
v 0.27 0 0.125
v 0.25 0.01010567 0.125
v 0.25 1.499801 0.125
v 0.2497956 0.01010567 -0.125
v 0.2499986 1.499801 -0.125
v 0.25 1.499801 0.125
v 0.25 0.01010567 0.125
v 0.2499986 1.499801 -0.125
v -0.2506545 0.01010567 -0.125
v -0.2506545 1.499801 -0.125
v -0.25 0.01010541 0.125
v -0.25 1.499801 0.125
v -0.2506545 1.499801 -0.125
v -0.2506545 0.01010567 -0.125
v -0.25 1.499801 0.125
v -0.25 0.01010541 0.125
v -0.27 0 0.125
v -0.2700001 1.51 0.125
v 0.25 0.01010567 0.125
v 0.27 0 0.125
v -0.27 0 0.125
v -0.25 0.01010541 0.125
v 0.27 0 0.125
v 0.27 0 -0.135
v -0.27 0 -0.135
v -0.27 0 0.125
v 0.25 1.36 -0.125
v 0.25 1.36 0.125
v -0.25 1.36 0.125
v -0.25 1.36 -0.125
v 0.25 1.36 0.125
v 0.25 1.35 0.125
v -0.25 1.35 0.125
v -0.25 1.36 0.125
v 0.25 1.35 0.125
v 0.25 1.35 -0.125
v -0.25 1.35 -0.125
v -0.25 1.35 0.125
v 0.25 1.21 -0.125
v 0.25 1.21 0.125
v -0.25 1.21 0.125
v -0.25 1.21 -0.125
v 0.25 1.21 0.125
v 0.25 1.2 0.125
v -0.25 1.2 0.125
v -0.25 1.21 0.125
v 0.25 1.2 0.125
v 0.25 1.2 -0.125
v -0.25 1.2 -0.125
v -0.25 1.2 0.125
vt 0.6029933 0.4140972
vt 0.5976049 0.412111
vt 0.5956679 0.4141316
vt 0.6029933 0.4140972
vt 0.5975947 0.382769
vt 0.6030167 0.3808792
vt 0.5975947 0.382769
vt 0.595645 0.3808464
vt 0.6726979 0.3501933
vt 0.5828606 0.3502617
vt 0.6725792 0.4537783
vt 0.595645 0.3808464
vt 0.5956679 0.4141316
vt 0.5828606 0.4536078
vt 0.5956679 0.4141316
vt 0.5976049 0.412111
vt 0.5975947 0.382769
vt 0.5956679 0.4141316
vt 0.5975947 0.382769
vt 0.595645 0.3808464
vt 0.7704474 0.4531436
vt 0.7704474 0.3508468
vt 0.6822605 0.3508468
vt 0.6822605 0.4531436
vt 0.7151975 0.01262069
vt 0.7150346 0.04246187
vt 0.8044467 0.04255676
vt 0.8046096 0.01271558
vt 0.9824373 0.04274576
vt 0.9826001 0.01290455
vt 0.9013667 0.01281831
vt 0.9012038 0.04265952
vt 0.9013667 0.01281831
vt 0.8046096 0.01271558
vt 0.8044467 0.04255676
vt 0.9012038 0.04265952
vt 0.6000644 0.04233982
vt 0.7150346 0.04246187
vt 0.7151975 0.01262069
vt 0.6002272 0.01249862
vt 0.7011219 0.2480115
vt 0.6587991 0.2479925
vt 0.6587869 0.2919453
vt 0.7011094 0.2919489
vt 0.6587991 0.2479925
vt 0.6571375 0.24962
vt 0.6571271 0.2903164
vt 0.6587869 0.2919453
vt 0.9849842 0.1061436
vt 0.9440222 0.1062921
vt 0.9441712 0.147307
vt 0.9851329 0.1471063
vt 0.9414005 0.2919911
vt 0.7011094 0.2919489
vt 0.7014602 0.3343269
vt 0.9410688 0.3343244
vt 0.7011094 0.2919489
vt 0.9414005 0.2919911
vt 0.9413856 0.2479762
vt 0.7011219 0.2480115
vt 0.9410256 0.2056533
vt 0.701496 0.205639
vt 0.7011219 0.2480115
vt 0.9413856 0.2479762
vt 0.701496 0.205639
vt 0.9410256 0.2056533
vt 0.9394416 0.203002
vt 0.7030761 0.2029903
vt 0.6999354 0.1071952
vt 0.9440222 0.1062921
vt 0.943871 0.06532964
vt 0.6997846 0.06623328
vt 0.9440222 0.1062921
vt 0.7000837 0.148193
vt 0.9441712 0.147307
vt 0.7002313 0.1891552
vt 0.9443203 0.1882689
vt 0.9441712 0.147307
vt 0.7000837 0.148193
vt 0.7031132 0.3369951
vt 0.9394006 0.3369853
vt 0.9410688 0.3343244
vt 0.7014602 0.3343269
vt 0.9854182 0.2495927
vt 0.9837708 0.247963
vt 0.983785 0.2919759
vt 0.9854324 0.290345
vt 0.9837708 0.247963
vt 0.9413856 0.2479762
vt 0.9414005 0.2919911
vt 0.983785 0.2919759
vt 0.7861094 0.4519517
vt 0.8814377 0.4519314
vt 0.8815086 0.3520162
vt 0.7861408 0.3520365
vt 0.8814377 0.4519314
vt 0.8922554 0.4519291
vt 0.8922628 0.352014
vt 0.8815086 0.3520162
vt 0.8922554 0.4519291
vt 0.9821882 0.45191
vt 0.9822452 0.3519948
vt 0.8922628 0.352014
vt 0.7861094 0.4519517
vt 0.8814377 0.4519314
vt 0.8815085 0.3520162
vt 0.7861406 0.3520364
vt 0.8814377 0.4519314
vt 0.8922555 0.4519291
vt 0.8922628 0.3520139
vt 0.8815085 0.3520162
vt 0.8922555 0.4519291
vt 0.9821882 0.4519099
vt 0.9822453 0.3519947
vt 0.8922628 0.3520139
vn 0 -1 0
vn 0 0 1
vn 0 -1 0
vn 0 0 1
vn 0 0 1
vn 0 0 1
vn 0 0 1
vn 0 1 0
vn 0 0 1
vn 0 0 1
vn 0 0 1
vn 0 0 1
vn 0 0 1
vn 0 0 1
vn 1 0 0
vn 0 0 1
vn 0 0 1
vn 1 0 0
vn 0 0 1
vn 1 0 0
vn 0 0 -1
vn 0 0 -1
vn 0 0 -1
vn 0 0 -1
vn 0 1 0
vn 0 1 0
vn 0 1 0
vn 0 1 0
vn 0 -1 0
vn 0 -1 0
vn 0 -1 0
vn 0 -1 0
vn -1 0 0
vn -1 0 0
vn -1 0 0
vn -1 0 0
vn 1 0 0
vn 1 0 0
vn 1 0 0
vn 1 0 0
vn 0 1 0
vn 0 1 0
vn 0 1 0
vn 0 1 0
vn 0 0 1
vn 0 0 1
vn 0 0 1
vn 0 0 1
vn 0 -1 0
vn 0 -1 0
vn 0 -1 0
vn 0 -1 0
vn -1 0 0
vn -1 0 0
vn -1 0 0
vn -1 0 0
vn 0 0 -1
vn 0 0 -1
vn 0 0 -1
vn 0 0 -1
vn 1 0 0
vn 1 0 0
vn 1 0 0
vn 1 0 0
vn 0 0 1
vn -4.069424E-07 0 1
vn -4.069423E-07 0 1
vn -4.069423E-07 0 1
vn -0.4417826 0.148415 0.8847605
vn -1 6.812754E-05 0.0004114533
vn -1 6.812754E-05 0.0004114533
vn 0 1 0
vn 0 0 1
vn 0 1 0
vn 0 0 1
vn 0 1 0
vn 0.9999967 0 -0.002618018
vn 0.9999967 0 -0.002618018
vn 0 1 0
vn 0 0 1
vn 0 0 1
vn 0 0 1
vn 0 0 1
vn 0 0 1
vn 0 0 1
vn 0 0 1
vn 0 0 1
vn 0 -1 0
vn 0 -1 0
vn 0 -1 0
vn 0 -1 0
vn 0 1 0
vn 0 1 0
vn 0 1 0
vn 0 1 0
vn 0 0 1
vn 0 0 1
vn 0 0 1
vn 0 0 1
vn 0 -1 0
vn 0 -1 0
vn 0 -1 0
vn 0 -1 0
vn 0 1 0
vn 0 1 0
vn 0 1 0
vn 0 1 0
vn 0 0 1
vn 0 0 1
vn 0 0 1
vn 0 0 1
vn 0 -1 0
vn 0 -1 0
vn 0 -1 0
vn 0 -1 0
g LockerMesh_0
f 3/3/3 2/2/2 1/1/1
f 2/2/2 5/5/5 4/4/4
f 7/7/7 6/6/6 4/4/4
f 6/6/6 7/7/7 8/8/8
f 4/4/4 6/6/6 9/9/9
f 9/9/9 6/6/6 10/10/10
f 11/11/11 4/4/4 9/9/9
f 6/6/6 12/12/12 10/10/10
f 13/13/13 4/4/4 11/11/11
f 10/10/10 12/12/12 14/14/14
f 14/14/14 13/13/13 11/11/11
f 12/12/12 13/13/13 14/14/14
f 17/17/17 16/16/16 15/15/15
f 20/20/20 19/19/19 18/18/18
f 23/23/23 22/22/22 21/21/21
f 24/24/24 23/23/23 21/21/21
f 27/27/27 26/26/26 25/25/25
f 28/28/28 27/27/27 25/25/25
f 31/31/31 30/30/30 29/29/29
f 32/32/32 31/31/31 29/29/29
f 35/35/35 34/34/34 33/33/33
f 36/36/36 35/35/35 33/33/33
f 39/39/39 38/38/38 37/37/37
f 40/40/40 39/39/39 37/37/37
f 43/43/43 42/42/42 41/41/41
f 44/44/44 43/43/43 41/41/41
f 47/47/47 46/46/46 45/45/45
f 48/48/48 47/47/47 45/45/45
f 51/51/51 50/50/50 49/49/49
f 52/52/52 51/51/51 49/49/49
f 55/55/55 54/54/54 53/53/53
f 56/56/56 55/55/55 53/53/53
f 59/59/59 58/58/58 57/57/57
f 60/60/60 59/59/59 57/57/57
f 63/63/63 62/62/62 61/61/61
f 64/64/64 63/63/63 61/61/61
f 67/67/67 66/66/66 65/65/65
f 68/68/68 67/67/67 65/65/65
f 71/71/71 70/70/70 69/69/69
f 72/72/72 71/71/71 69/69/69
f 74/74/74 69/69/69 73/73/73
f 75/75/75 74/74/74 73/73/73
f 78/78/78 77/77/77 76/76/76
f 79/79/79 78/78/78 76/76/76
f 82/82/82 81/81/81 80/80/80
f 83/83/83 82/82/82 80/80/80
f 86/86/86 85/85/85 84/84/84
f 87/87/87 86/86/86 84/84/84
f 90/90/90 89/89/89 88/88/88
f 91/91/91 90/90/90 88/88/88
f 94/94/94 93/93/93 92/92/92
f 95/95/95 94/94/94 92/92/92
f 98/98/98 97/97/97 96/96/96
f 99/99/99 98/98/98 96/96/96
f 102/102/102 101/101/101 100/100/100
f 103/103/103 102/102/102 100/100/100
f 106/106/106 105/105/105 104/104/104
f 107/107/107 106/106/106 104/104/104
f 110/110/110 109/109/109 108/108/108
f 111/111/111 110/110/110 108/108/108
f 114/114/114 113/113/113 112/112/112
f 115/115/115 114/114/114 112/112/112
